<?xml version="1.0" encoding="UTF-8" standalone="no"?>
<!-- Generator: Adobe Illustrator 15.0.2, SVG Export Plug-In . SVG Version: 6.00 Build 0)  -->
<!DOCTYPE svg  PUBLIC '-//W3C//DTD SVG 1.1//EN'  'http://www.w3.org/Graphics/SVG/1.1/DTD/svg11.dtd'>
<svg id="Layer_1" xmlns="http://www.w3.org/2000/svg" xml:space="preserve" height="117.6px" viewBox="0 0 185.4 117.6" width="185.4px" version="1.1" y="0px" x="0px" xmlns:xlink="http://www.w3.org/1999/xlink" enable-background="new 0 0 185.4 117.6">
<g fill="#ccc">
	<path d="m9.5 64.1h-9.5v-51.4h9.5v4.3c.2-.1.6-.5 1.1-1 1-1 2.4-2.4 4.1-3.4.8-.5 1.6-.7 2.4-.7 2.5 0 4.3 1.5 5.5 3.4 1.1 2 1.7 4.5 1.7 6.7v42.1h-9.5v-40.7c0-2-1.1-2.3-2.3-2.3-1 0-1.6.6-2.3 1.2-.3.4-.6.8-.8 1.2l.1 40.6z"/>
	<path d="m56.3 45.7v5.9c-.3 5-1.8 8.5-5.2 11.2-1.7 1.4-4 2.1-7.1 2.1-6.1 0-9.2-3.4-10.7-6.8-.8-2-1.4-4.2-1.5-6.8v-25.8c.3-5 1.9-8.6 5.3-11.5 1.6-1.4 3.9-2.1 7-2.1 6.1 0 9.2 3.4 10.7 6.7.8 2 1.4 4.1 1.5 6.6v14.9h-15.7v11.2c.1 2 .7 3.4 1.5 4.4.5.5 1.1.8 2 .8 1.8 0 2.6-1.1 3-2.5.3-.8.4-1.6.4-2.6v-5.6l8.8-.1zm-15.7-13h6.9v-7.2c0-2-.4-3.4-1.3-4.5-.5-.5-1.2-.8-2.1-.8-1.8 0-2.5 1.2-3 2.6-.3.8-.4 1.6-.5 2.6v7.3z"/>
	<path d="m84.7 64.1l-3.7-24.5-.5-2.9h-.4l-.5 2.9-3.7 24.5h-7.9l-7.6-51.4h8.6l3 26.9.4 2.9h.6l.5-2.9 3.9-26.9h5.6l3.9 26.9.5 2.9h.6l.4-2.9 3-26.9h8.6l-7.6 51.4h-7.7z"/>
	<path d="m117.4 0v12.7h6.5v8.6h-6.5v25.6c0 1.6 0 3.7.4 5.4s1.1 3.1 2.6 3.1c.8 0 1.7-.1 2.4-.2.4-.1.8-.1 1.1-.2v9.3c-.5.1-.9.3-1.4.4-.9.2-2.2.3-3.7.3-5.5 0-8.2-2.8-9.5-6.4s-1.4-7.9-1.4-10.9v-26.5h-4.8v-8.6h4.8v-12.6h9.5z"/>
	<path d="m153.5 51.6c-.3 5-1.8 8.5-5.1 11.2-1.7 1.4-4 2.1-7.1 2.1-6.1 0-9.1-3.4-10.6-6.8-.8-2-1.4-4.2-1.5-6.8v-25.8c.3-5 1.8-8.6 5.1-11.5 1.6-1.4 3.9-2.1 7-2.1 6.1 0 9.2 3.4 10.7 6.7.8 2 1.4 4.1 1.5 6.6v26.4zm-8.9-26.1c.1-2-.3-3.4-1.2-4.5-.5-.5-1.2-.8-2.1-.8-1.8 0-2.5 1.2-2.9 2.6-.3.8-.4 1.6-.3 2.6v25.8c-.1 2 .4 3.4 1.2 4.4.5.5 1.1.8 2 .8 1.8 0 2.6-1.1 3-2.5.3-.8.4-1.6.3-2.6v-25.8z"/>
	<path d="m170.5 64.1h-9.5v-51.4h9.5v4.3c.2-.1.6-.5 1.1-1 1-1 2.4-2.4 4.1-3.4.8-.5 1.6-.7 2.4-.7 2.5 0 4.3 1.5 5.5 3.4 1.1 2 1.7 4.5 1.7 6.7v42.1h-9.5v-40.7c0-2-1.1-2.3-2.3-2.3-1 0-1.6.6-2.3 1.2-.3.4-.6.8-.8 1.2l.1 40.6z"/>
	<path d="m0 117.1v-48.5h6.3c4.2 0 7.5.8 9.7 2.8s3.3 5.2 3.3 10c0 2.3-.2 4-.9 5.6s-1.8 2.9-3.5 4.4c1.8 1 3.1 2.8 4.2 5.9.5 1.5.8 3.5.8 5.9 0 3.6-.7 6.9-2.3 9.4s-4.5 4.2-8.7 4.4l-8.9.1zm7.1-28.5c.6 0 2 .1 3.2-.7s2.1-2.4 2.1-5.7c0-3.4-.9-4.9-2.1-5.7s-2.6-.7-3.2-.7v12.8zm0 21.4c.6 0 2 .1 3.2-.7s2.1-2.8 2.1-6.7-.9-5.9-2.1-6.7-2.6-.7-3.2-.7v14.8z"/>
	<path d="m23.8 68.6h16.3v7.3h-9.1v12.7h6.6v7.8h-6.6v13.3h9.2v7.3h-16.4v-48.4z"/>
	<path d="m42 117.1l7.3-48.5h8.7l7.3 48.5h-6.9l-1.3-9.9h-6.9l-1.3 9.9h-6.9zm12.1-32.7l-.2-1.3h-.4l-.2 1.3-2 15.3h4.9l-2.1-15.3z"/>
	<path d="m87.1 100.5v6.7c-.1 2-.5 3.8-1.2 5.3-.6 1.3-1.5 2.6-2.8 3.6-1.3 1.1-3.1 1.6-5.5 1.6s-4.3-.7-5.6-1.7c-1.3-1-2.2-2.2-2.8-3.6-.7-1.5-1.1-3.3-1.2-5.3v-28.5c.1-1.9.5-3.7 1.2-5.2.6-1.3 1.5-2.6 2.8-3.6s3.2-1.7 5.5-1.7c2.4 0 4.2.7 5.5 1.7s2.2 2.3 2.8 3.6c.7 1.5 1.1 3.3 1.2 5.2v6.7h-6.7v-6.7c0-1.3-.3-2.2-1.1-3-.2-.4-.8-.6-1.5-.6-1.3 0-1.8.9-2.2 1.8-.2.5-.3 1.1-.3 1.8v28.6c.1 1.4.5 2.3 1.1 3 .3.3.8.5 1.4.5 1.5 0 2.1-.8 2.4-1.8.2-.5.3-1.1.3-1.8v-6.7h6.7z"/>
	<path d="m103.8 96h-5.5v21.1h-7.1v-48.5h7.1v20.1h5.5v-20.1h7.1v48.5h-7.1v-21.1z"/>
	<path d="m126 68.6h7.1v48.5h-7.1v-48.5z"/>
	<path d="m145.7 91.8l-.6-2.2h-.4v27.5h-6.5v-48.5h6.3l6.9 25.3.6 2.2h.4v-27.5h6.5v48.5h-6.3l-6.9-25.3z"/>
	<path d="m171.9 91.8l-.6-2.2h-.4v27.5h-6.5v-48.5h6.3l6.9 25.3.6 2.2h.4v-27.5h6.5v48.5h-6.3l-6.9-25.3z"/>
</g>
<path d="m149.5 92"/>
</svg>
